HIERARCHY
ROOT Hips
{
  OFFSET -31.5692 30.0904 122.763
  CHANNELS 6 Xposition Yposition Zposition Zrotation Xrotation Yrotation
  JOINT LeftUpLeg
  {
    OFFSET 8.64259 1.95398 -2.38835
    CHANNELS 3 Zrotation Xrotation Yrotation
    JOINT LeftLeg
    {
      OFFSET 43.7702 0 0
      CHANNELS 3 Zrotation Xrotation Yrotation
      JOINT LeftFoot
      {
        OFFSET 40.6238 0 0
        CHANNELS 3 Zrotation Xrotation Yrotation
        JOINT LeftToeBase
        {
          OFFSET 12.7242 0 0
          CHANNELS 3 Zrotation Xrotation Yrotation
          End Site
          {
            OFFSET 0 0 0
          }
        }
      }
    }
  }
  JOINT RightUpLeg
  {
    OFFSET -8.2249 1.95398 -2.59336
    CHANNELS 3 Zrotation Xrotation Yrotation
    JOINT RightLeg
    {
      OFFSET 43.5653 0 0
      CHANNELS 3 Zrotation Xrotation Yrotation
      JOINT RightFoot
      {
        OFFSET 40.6238 0 0
        CHANNELS 3 Zrotation Xrotation Yrotation
        JOINT RightToeBase
        {
          OFFSET 12.7242 0 0
          CHANNELS 3 Zrotation Xrotation Yrotation
          End Site
          {
            OFFSET 0 0 0
          }
        }
      }
    }
  }
  JOINT Spine
  {
    OFFSET 0.165834 0.87714 6.61349
    CHANNELS 3 Zrotation Xrotation Yrotation
    JOINT Spine1
    {
      OFFSET 7.38963 1.71661e-005 0
      CHANNELS 3 Zrotation Xrotation Yrotation
      JOINT Spine2
      {
        OFFSET 11.9445 1.14441e-005 0
        CHANNELS 3 Zrotation Xrotation Yrotation
        JOINT Spine3
        {
          OFFSET 14.7254 4.19617e-005 0
          CHANNELS 3 Zrotation Xrotation Yrotation
          JOINT Spine4
          {
            OFFSET 10.9679 0 0
            CHANNELS 3 Zrotation Xrotation Yrotation
            JOINT RightShoulder
            {
              OFFSET 2.46616 -1.6653 3.69651
              CHANNELS 3 Zrotation Xrotation Yrotation
              JOINT RightArm
              {
                OFFSET 13.0012 0 0
                CHANNELS 3 Zrotation Xrotation Yrotation
                JOINT RightForeArm
                {
                  OFFSET 28.7848 1.62311e-005 0
                  CHANNELS 3 Zrotation Xrotation Yrotation
                  JOINT RightHand
                  {
                    OFFSET 26.5688 1.62095e-005 0
                    CHANNELS 3 Zrotation Xrotation Yrotation
                    End Site
                    {
                      OFFSET 0 0 0
                    }
                  }
                }
              }
            }
            JOINT LeftShoulder
            {
              OFFSET 2.38034 -1.29275 -3.7523
              CHANNELS 3 Zrotation Xrotation Yrotation
              JOINT LeftArm
              {
                OFFSET 16.3182 6.07031e-005 0
                CHANNELS 3 Zrotation Xrotation Yrotation
                JOINT LeftForeArm
                {
                  OFFSET 27.0901 0 0
                  CHANNELS 3 Zrotation Xrotation Yrotation
                  JOINT LeftHand
                  {
                    OFFSET 24.5451 1.51738e-005 0
                    CHANNELS 3 Zrotation Xrotation Yrotation
                    End Site
                    {
                      OFFSET 0 0 0
                    }
                  }
                }
              }
            }
            JOINT Neck
            {
              OFFSET 5.0226 -0.0266342 0
              CHANNELS 3 Zrotation Xrotation Yrotation
              JOINT Head
              {
                OFFSET 6.69364 2.86102e-005 0
                CHANNELS 3 Zrotation Xrotation Yrotation
                End Site
                {
                  OFFSET 0 0 0
                }
              }
            }
          }
        }
      }
    }
  }
}
MOTION
Frames:	9
Frame Time:	0.0416667
-318.831 87.7539 314.432 93.3968 27.296 84.9031 -167.752 42.3317 88.6257 -64.0462 0.905805 -2.11364 80.8729 11.2191 4.2832 23.396 -1.62188 -2.45999 169.792 -15.8387 80.8138 -37.1553 -29.6864 -9.63703 71.0583 -9.76156 -4.47776 45.1852 -7.7115 8.97268 3.98748 8.00305 -89.946 10.9123 7.96385 -0.643783 -0.734491 7.92776 -0.995906 -23.4608 7.7868 1.79451 -3.44816 7.78682 1.79452 95.7678 -15.4562 -99.1303 30.9149 8.53825 -7.48967 -36.6095 -10.1286 -83.1875 -47.5382 5.4486 -22.8376 -87.7788 -46.7423 81.4578 -13.8778 37.7029 46.0947 67.8113 24.9322 -61.7933 66.0718 -22.2322 -26.2421 25.0049 -6.49843 4.36009 -20.5435 -7.38087 -2.9849 
-308.467 88.6688 304.768 87.9981 43.3757 89.5245 -178.596 45.6586 87.5127 -38.529 10.9155 -0.71208 68.7986 6.47673 3.19724 26.0948 -0.713556 -1.58831 174.173 -18.2316 91.0121 -35.6911 -21.1351 -7.02581 61.0072 1.48343 -3.51177 26.3153 -1.32489 11.5234 2.75336 7.6593 -89.4275 11.5539 5.74527 0.548776 -0.104256 5.76381 0.294509 -22.7301 5.31403 2.25495 -2.71752 5.31405 2.25495 94.4285 -13.2346 -103.595 30.3407 13.7895 -7.86284 -39.5561 -9.2658 -85.9326 -46.1792 5.60656 -24.1277 -86.1412 -32.1531 81.2783 -23.2848 32.4478 47.6224 62.3711 19.3137 -59.5207 62.6448 -19.3968 -25.1225 22.9197 -11.6502 -5.4063 -17.6779 -9.35579 -0.680001 
-297.774 89.4659 293.946 89.1501 42.7319 89.1485 -176.674 38.5046 87.337 -25.7096 11.1597 -2.10929 69.5146 7.14602 0.755476 22.7445 -4.71402 4.42669 175.372 -19.6363 91.688 -43.2453 -20.3881 -7.46241 64.0311 -1.12385 -3.02171 19.0039 1.58339 10.2123 2.85215 7.41258 -89.5268 12.061 5.89427 0.304109 0.403561 5.90192 0.0434577 -22.2298 5.52952 2.06693 -2.21716 5.52952 2.06693 94.5423 -13.9538 -102.965 32.0999 2.88206 -4.55481 -40.2375 -7.30539 -87.8715 -44.9158 5.7661 -25.5299 -86.7926 -36.7569 81.0341 -23.3799 31.1268 49.3365 62.8427 17.4162 -60.5657 68.3649 -19.6082 -22.145 17.781 -10.5853 -4.04594 -15.6854 -8.88067 -1.86262 
-288.12 89.5362 283.825 92.6862 42.8714 88.986 -174.942 35.0735 89.1948 -31.9784 9.48266 -2.47705 60.1826 -0.476879 1.11697 23.8308 -2.31502 -0.102863 173.647 -14.3936 92.727 -57.6875 -9.83277 -3.96474 67.4126 -3.21461 -1.40817 22.2341 0.120392 11.1611 2.34213 7.40789 -89.9321 12.076 4.68819 -0.380868 0.413358 4.66687 -0.58729 -22.1877 4.58547 1.0488 -2.17504 4.58546 1.04879 93.5122 -18.0234 -103.851 36.1265 -7.21208 1.16477 -39.2409 -10.0528 -84.9502 -43.1871 5.43227 -25.7474 -86.6351 -43.8588 82.739 -19.8309 25.0155 39.0884 69.0251 26.1855 -64.9237 67.6123 -16.2558 -16.9046 15.6978 -8.30744 -3.28609 -15.9684 -7.10982 -0.799686 
-279.379 88.7968 274.406 95.6316 42.5801 84.9459 -171.246 32.3615 86.312 -47.7977 11.7451 -3.59878 71.37 7.07647 4.41962 14.7166 -8.30118 2.69544 170.769 -1.13959 88.978 -78.1233 -3.62052 -3.49995 72.1062 -6.39817 -4.00146 14.6781 4.77799 5.63538 1.50483 7.58807 -89.7058 11.6979 3.13118 0.258362 0.030679 3.13952 0.120157 -22.5314 2.90865 1.18824 -2.51871 2.90866 1.18824 93.5732 -22.8116 -101.856 40.6271 -12.7448 6.74414 -39.8065 -21.2344 -77.6161 -42.848 3.62552 -22.038 -87.1495 -50.4408 83.075 -15.7124 15.2524 24.4891 75.6429 37.2181 -69.9381 69.989 -13.3393 -10.824 15.958 -5.56054 -6.0168 -15.4052 -3.92755 1.81966 
-271.263 87.7626 265.587 97.8266 37.8748 77.4625 -167.709 22.3418 81.5526 -52.5589 6.89413 -5.68841 79.0791 12.723 5.26987 23.6754 -2.21222 -0.508085 175.937 15.6774 82.3382 -92.9009 -1.10005 -5.80246 75.0745 -8.98193 -5.20701 18.5071 2.50468 7.75331 0.972353 7.87748 -88.8351 11.0875 2.47571 2.07409 -0.582574 2.56461 1.9631 -23.1151 1.73817 2.72203 -3.10246 1.7382 2.72205 92.2339 -27.7721 -103.034 40.9861 -6.36937 13.8332 -40.1514 -36.1894 -68.9958 -41.9736 1.31665 -16.8502 -88.1284 -53.7989 82.203 -12.0434 9.27409 6.61101 83.1665 42.8166 -75.6057 84.3746 -11.5234 -3.0044 16.9172 -2.73713 -9.62356 -16.3109 -0.268057 3.37251 
-262.892 86.4636 257.616 97.7849 35.9158 78.2994 -167.355 14.336 83.2266 -55.5492 2.48653 -5.13759 91.4206 19.4037 0.0615004 24.5602 -4.26514 5.80355 -179.098 33.1421 88.8269 -95.1748 0.0520477 -5.40223 75.6384 -9.91729 -7.22228 21.0928 -0.018366 13.2868 0.323858 7.79906 -88.9636 11.2704 1.12706 1.94833 -0.401854 1.2117 1.89686 -22.9237 0.489681 2.19684 -2.91106 0.489674 2.19683 92.8093 -26.6112 -102.22 40.4449 0.844363 23.0657 -50.6802 -46.7243 -71.7496 -33.9728 -1.22559 -11.792 -88.549 -54.5619 81.7334 -6.22686 7.5168 -10.8406 99.0523 45.1119 -85.7298 82.5331 -16.337 -8.06411 15.7157 1.73198 -6.81287 -16.2533 3.39503 1.69253 
-252.768 87.1634 247.634 99.7314 38.5239 79.3742 -169.2 -1.66644 84.6883 -47.3553 0.201469 -3.01646 94.6146 21.7999 -1.76009 31.7346 -0.466272 5.99837 -179.949 40.1743 91.3559 -82.0391 0.472175 -4.35891 77.5729 -9.88106 -4.75337 19.6861 1.57412 9.33507 -0.760651 7.74579 -89.3336 11.3868 -1.20262 1.4488 -0.284369 -1.1377 1.50031 -22.8209 -1.58242 1.02039 -2.80821 -1.58243 1.02039 94.5563 -24.2826 -99.1749 39.198 0.481294 32.8492 -40.5996 -48.0892 -63.5716 -38.9309 -0.0245123 -14.3278 -88.6143 -52.4766 81.2706 0.929532 3.8417 -23.3226 72.6611 43.2426 -71.9838 73.1238 -10.7567 -6.41332 14.1882 6.19336 -4.84636 -17.3403 7.09944 1.85971 
-242.443 87.8445 237.974 100.402 39.3309 80.9539 -169.376 -13.8596 88.085 -37.6027 2.53449 -1.61264 88.3117 19.1158 1.2425 38.7384 2.80276 7.87143 -178.832 41.6098 91.9264 -58.1011 1.86235 -2.81151 77.3151 -9.37691 1.07955 7.76139 6.37415 9.095 -1.69654 7.64425 -89.6512 11.6034 -3.2112 1.02746 -0.0641138 -3.16287 1.16791 -22.6311 -3.37137 0.0138033 -2.61846 -3.37139 0.0137966 95.6643 -20.3948 -97.7865 36.5348 -0.35018 39.8954 -34.1741 -45.8416 -59.3441 -39.48 2.09514 -20.6867 -88.3235 -45.251 80.3068 0.234525 -1.94731 -27.2061 70.8006 42.9853 -71.6472 74.9469 -10.1544 -5.29916 13.6122 10.3013 -4.95221 -19.0454 10.7441 4.48131 
